<?xml version="1.0" standalone="no"?>
<!DOCTYPE svg PUBLIC "-//W3C//DTD SVG 20010904//EN"
 "http://www.w3.org/TR/2001/REC-SVG-20010904/DTD/svg10.dtd">
<svg version="1.0" xmlns="http://www.w3.org/2000/svg"
 width="372.000000pt" height="135.000000pt" viewBox="0 0 372.000000 135.000000"
 preserveAspectRatio="xMidYMid meet">

<g transform="translate(0.000000,135.000000) scale(0.100000,-0.100000)"
fill="#000000" stroke="none">
<path d="M210 1065 l0 -175 25 0 25 0 0 -125 0 -125 -25 0 -25 0 0 -170 0
-170 210 0 210 0 0 -70 c0 -62 3 -74 25 -95 l24 -25 1140 0 c627 0 1147 3
1156 6 27 11 45 60 45 124 l0 60 205 0 205 0 0 170 c0 163 -1 170 -20 170 -19
0 -20 7 -20 125 0 118 1 125 20 125 19 0 20 7 20 175 l0 175 -676 0 -675 0
-60 -57 -59 -56 -59 56 -60 57 -815 0 -816 0 0 -175z m398 -2 c-3 -83 -4 -88
-25 -91 -23 -3 -23 -3 -23 -208 l0 -204 25 0 c25 0 25 -1 25 -90 l0 -90 -155
0 -155 0 0 90 c0 83 1 90 20 90 19 0 20 7 20 205 0 198 -1 205 -20 205 -19 0
-20 7 -20 90 l0 90 155 0 156 0 -3 -87z m702 -23 l0 -110 -90 0 c-83 0 -90 1
-90 20 0 13 -7 20 -20 20 -19 0 -20 -7 -20 -205 l0 -205 25 0 c25 0 25 -1 25
-90 l0 -90 -155 0 -155 0 0 90 c0 83 1 90 20 90 19 0 20 7 20 205 0 198 -1
205 -20 205 -13 0 -20 -7 -20 -20 0 -19 -7 -20 -90 -20 l-90 0 0 110 0 110
330 0 330 0 0 -110z m562 53 l58 -57 0 -83 0 -83 -105 0 -105 0 0 38 c0 51
-14 62 -76 62 -76 0 -84 -5 -84 -56 0 -58 14 -64 147 -64 l107 0 58 -57 58
-57 0 -115 0 -115 -62 -63 -62 -63 -171 0 -171 0 -62 63 -63 63 3 75 3 74 108
3 107 3 0 -39 c0 -51 14 -62 80 -62 64 0 80 11 80 55 0 56 -23 66 -145 64
l-107 -2 -64 64 -64 63 0 110 0 110 62 63 62 63 175 0 175 0 58 -57z m635 -5
l63 -62 0 -260 0 -260 -62 -63 -62 -63 -170 0 -170 0 -63 62 -63 62 0 260 0
260 62 63 62 63 170 0 170 0 63 -62z m471 -105 l102 -168 0 78 c0 70 -2 77
-20 77 -19 0 -20 7 -20 90 l0 90 155 0 156 0 -3 -87 c-3 -83 -4 -88 -25 -91
-23 -3 -23 -3 -23 -208 l0 -204 25 0 c25 0 25 -1 25 -90 l0 -91 -132 3 -132 3
-96 157 c-52 86 -97 159 -100 161 -3 3 -5 -28 -5 -69 0 -70 1 -74 23 -74 21 0
22 -3 22 -90 l0 -90 -155 0 -155 0 0 90 c0 89 0 90 25 90 l25 0 0 205 0 205
-25 0 c-25 0 -25 1 -25 90 l0 90 128 0 129 0 101 -167z m-2178 -738 c0 -38 3
-45 20 -45 17 0 20 7 20 45 0 33 4 45 15 45 21 0 21 -83 -1 -104 -18 -19 -55
-21 -72 -4 -18 18 -16 108 3 108 11 0 15 -12 15 -45z m245 8 l25 -38 0 38 c0
20 5 37 10 37 6 0 10 -27 10 -60 0 -33 -4 -60 -10 -60 -5 0 -21 17 -35 37
l-25 38 0 -39 c0 -53 -24 -42 -28 13 -6 80 13 92 53 34z m205 -23 c0 -47 -3
-60 -15 -60 -11 0 -15 13 -15 53 0 30 3 57 7 60 17 17 23 2 23 -53z m165 20
l13 -35 11 28 c6 16 11 33 11 38 0 5 7 9 16 9 18 0 15 -25 -11 -87 -20 -47
-38 -41 -61 19 -10 29 -21 56 -23 61 -2 5 5 7 14 5 10 -1 24 -19 30 -38z m255
25 c0 -8 -9 -15 -20 -15 -11 0 -20 -4 -20 -10 0 -5 7 -10 15 -10 8 0 15 -4 15
-10 0 -5 -7 -10 -15 -10 -8 0 -15 -4 -15 -10 0 -5 9 -10 20 -10 11 0 20 -7 20
-16 0 -11 -8 -14 -32 -12 -31 3 -33 5 -36 47 -2 24 -1 50 2 57 7 19 66 18 66
-1z m189 2 c6 -7 10 -27 9 -43 -1 -16 2 -37 6 -46 6 -13 4 -18 -7 -18 -9 0
-19 9 -22 20 -3 11 -11 20 -16 20 -5 0 -9 -9 -9 -20 0 -11 -4 -20 -10 -20 -6
0 -10 27 -10 60 0 57 1 60 24 60 13 0 28 -6 35 -13z m206 -7 c0 -9 -8 -14 -20
-12 -16 3 -15 -1 9 -21 25 -21 27 -26 17 -46 -14 -26 -66 -27 -66 -1 0 10 8
14 25 12 l25 -3 -27 22 c-29 22 -37 54 -15 63 22 9 52 1 52 -14z m165 -40 c0
-47 -3 -60 -15 -60 -12 0 -15 13 -15 60 0 47 3 60 15 60 12 0 15 -13 15 -60z
m202 43 c39 -35 11 -103 -44 -103 -28 0 -28 1 -28 60 0 58 1 60 27 60 14 0 35
-7 45 -17z m223 -38 c19 -55 14 -84 -9 -52 -16 21 -46 23 -46 2 0 -8 -7 -15
-15 -15 -8 0 -15 2 -15 4 0 3 20 62 35 104 10 28 33 9 50 -43z m213 39 c46
-32 15 -104 -45 -104 -21 0 -23 4 -23 60 0 56 2 60 23 60 12 0 33 -7 45 -16z"/>
<path d="M2205 958 c-3 -8 -4 -99 -3 -203 l3 -190 70 0 70 0 0 200 0 200 -68
3 c-49 2 -69 -1 -72 -10z"/>
<path d="M1820 250 c0 -5 5 -10 10 -10 6 0 10 5 10 10 0 6 -4 10 -10 10 -5 0
-10 -4 -10 -10z"/>
<path d="M2390 230 c0 -20 5 -30 15 -30 10 0 15 10 15 30 0 20 -5 30 -15 30
-10 0 -15 -10 -15 -30z"/>
<path d="M2621 234 c0 -11 3 -14 6 -6 3 7 2 16 -1 19 -3 4 -6 -2 -5 -13z"/>
<path d="M2820 230 c0 -25 4 -31 18 -28 11 2 17 12 17 28 0 16 -6 26 -17 28
-14 3 -18 -3 -18 -28z"/>
</g>
</svg>
